<mxfile host="app.diagrams.net" modified="2024-04-13T10:01:38.651Z" agent="Mozilla/5.0 (Macintosh; Intel Mac OS X 10.15; rv:124.0) Gecko/20100101 Firefox/124.0" etag="Pau8z8HdkNtNpn-AfbjK" version="24.2.5" type="device">
  <diagram name="Page-1" id="08mt92PuHdrqDF8_NBdw">
    <mxGraphModel dx="753" dy="481" grid="1" gridSize="10" guides="1" tooltips="1" connect="1" arrows="1" fold="1" page="1" pageScale="1" pageWidth="850" pageHeight="1100" math="0" shadow="0">
      <root>
        <mxCell id="0" />
        <mxCell id="1" parent="0" />
        <mxCell id="jF7e8WXOF0KayZX-llXl-1" value="Google Cloud Platform" style="shape=agent;offsetSize=8;strokeWidth=2;fontSize=14;" vertex="1" parent="1">
          <mxGeometry x="270" y="780" width="700" height="30" as="geometry" />
        </mxCell>
        <mxCell id="0.1" value="Best viewed with the &lt;a href=&quot;https://github.com/ariel-bentu/tam-drawio&quot;&gt;TAM plugin&lt;/a&gt;" style="text;html=1;shape=tamPluginMissing;" vertex="1" connectable="0" parent="1">
          <mxGeometry x="540" y="840" width="200" height="25" as="geometry" />
        </mxCell>
        <mxCell id="jF7e8WXOF0KayZX-llXl-2" value="Kubernetes" style="shape=agent;offsetSize=8;strokeWidth=2;verticalAlign=bottom;align=left;horizontal=1;textShadow=0;labelBorderColor=none;fontSize=14;spacingLeft=10;spacingBottom=6;" vertex="1" parent="1">
          <mxGeometry x="270" y="310" width="700" height="450" as="geometry" />
        </mxCell>
        <mxCell id="jF7e8WXOF0KayZX-llXl-3" value="hub" style="shape=agent;offsetSize=8;strokeWidth=2;align=left;verticalAlign=bottom;dashed=1;fontSize=14;fillColor=#eeeeee;strokeColor=#36393d;spacingLeft=5;spacingBottom=3;" vertex="1" parent="1">
          <mxGeometry x="570" y="380" width="370" height="210" as="geometry" />
        </mxCell>
        <mxCell id="jF7e8WXOF0KayZX-llXl-4" value="MediaMTX" style="shape=agent;offsetSize=8;strokeWidth=2;multiple=true;" vertex="1" parent="1">
          <mxGeometry x="800" y="400" width="100" height="70" as="geometry" />
        </mxCell>
        <mxCell id="jF7e8WXOF0KayZX-llXl-5" value="Notification&#xa;Service" style="shape=agent;offsetSize=8;strokeWidth=2;" vertex="1" parent="1">
          <mxGeometry x="610" y="500" width="100" height="60" as="geometry" />
        </mxCell>
        <mxCell id="jF7e8WXOF0KayZX-llXl-6" value="Video&#xa;Proxy" style="shape=agent;offsetSize=8;strokeWidth=2;" vertex="1" parent="1">
          <mxGeometry x="610" y="405" width="100" height="60" as="geometry" />
        </mxCell>
        <mxCell id="jF7e8WXOF0KayZX-llXl-7" value="Recording&#xa;Service" style="shape=agent;offsetSize=8;strokeWidth=2;" vertex="1" parent="1">
          <mxGeometry x="800" y="505" width="100" height="60" as="geometry" />
        </mxCell>
        <mxCell id="jF7e8WXOF0KayZX-llXl-8" value="ui" style="shape=agent;offsetSize=8;strokeWidth=2;dashed=1;verticalAlign=bottom;align=left;fontSize=14;fillColor=#eeeeee;strokeColor=#36393d;labelPosition=center;verticalLabelPosition=middle;spacingLeft=5;spacingBottom=3;" vertex="1" parent="1">
          <mxGeometry x="297.5" y="380" width="190" height="120" as="geometry" />
        </mxCell>
        <mxCell id="jF7e8WXOF0KayZX-llXl-10" value="Web UI" style="shape=agent;offsetSize=8;strokeWidth=2;multiple=true;" vertex="1" parent="1">
          <mxGeometry x="342.5" y="400" width="100" height="60" as="geometry" />
        </mxCell>
        <mxCell id="jF7e8WXOF0KayZX-llXl-11" value="UI Ingress" style="shape=agent;offsetSize=8;strokeWidth=2;" vertex="1" parent="1">
          <mxGeometry x="312.5" y="330" width="160" height="35" as="geometry" />
        </mxCell>
        <mxCell id="jF7e8WXOF0KayZX-llXl-12" value="Proxy Egress" style="shape=agent;offsetSize=8;strokeWidth=2;" vertex="1" parent="1">
          <mxGeometry x="590" y="330" width="140" height="35" as="geometry" />
        </mxCell>
        <mxCell id="jF7e8WXOF0KayZX-llXl-17" value="RTSP" style="edgeStyle=elbowEdgeStyle;html=1;labelBackgroundColor=none;rounded=1;elbow=horizontal;endArrow=classic;endFill=1;align=left;exitX=0;exitY=0.5;exitDx=0;exitDy=0;entryX=1;entryY=0.5;entryDx=0;entryDy=0;spacingBottom=5;" edge="1" parent="1" source="jF7e8WXOF0KayZX-llXl-4" target="jF7e8WXOF0KayZX-llXl-6">
          <mxGeometry x="0.3333" y="-5" width="80" height="80" relative="1" as="geometry">
            <mxPoint x="740" y="590" as="sourcePoint" />
            <mxPoint x="820" y="510" as="targetPoint" />
            <mxPoint as="offset" />
          </mxGeometry>
        </mxCell>
        <mxCell id="jF7e8WXOF0KayZX-llXl-18" value="gRPC" style="edgeStyle=elbowEdgeStyle;html=1;labelBackgroundColor=none;rounded=1;elbow=horizontal;endArrow=classic;endFill=1;align=left;exitX=0;exitY=0.75;exitDx=0;exitDy=0;entryX=1;entryY=0.5;entryDx=0;entryDy=0;" edge="1" parent="1" source="jF7e8WXOF0KayZX-llXl-4" target="jF7e8WXOF0KayZX-llXl-5">
          <mxGeometry x="0.0011" width="80" height="80" relative="1" as="geometry">
            <mxPoint x="460" y="710" as="sourcePoint" />
            <mxPoint x="540" y="630" as="targetPoint" />
            <Array as="points">
              <mxPoint x="740" y="490" />
            </Array>
            <mxPoint as="offset" />
          </mxGeometry>
        </mxCell>
        <mxCell id="jF7e8WXOF0KayZX-llXl-19" value="RTSP" style="edgeStyle=elbowEdgeStyle;html=1;labelBackgroundColor=none;rounded=1;elbow=vertical;endArrow=classic;endFill=1;align=center;exitX=0.5;exitY=1;exitDx=0;exitDy=0;entryX=0.5;entryY=0;entryDx=0;entryDy=0;" edge="1" parent="1" source="jF7e8WXOF0KayZX-llXl-4" target="jF7e8WXOF0KayZX-llXl-7">
          <mxGeometry y="20" width="80" height="80" relative="1" as="geometry">
            <mxPoint x="800" y="680" as="sourcePoint" />
            <mxPoint x="850" y="520" as="targetPoint" />
            <mxPoint as="offset" />
          </mxGeometry>
        </mxCell>
        <mxCell id="jF7e8WXOF0KayZX-llXl-21" value="" style="edgeStyle=elbowEdgeStyle;html=1;labelBackgroundColor=none;rounded=1;elbow=vertical;endArrow=none;endFill=0;align=center;entryX=0.5;entryY=1;entryDx=0;entryDy=0;exitX=0.5;exitY=0;exitDx=0;exitDy=0;" edge="1" parent="1" source="jF7e8WXOF0KayZX-llXl-6" target="jF7e8WXOF0KayZX-llXl-12">
          <mxGeometry width="80" height="80" relative="1" as="geometry">
            <mxPoint x="740" y="415" as="sourcePoint" />
            <mxPoint x="740" y="381" as="targetPoint" />
          </mxGeometry>
        </mxCell>
        <mxCell id="jF7e8WXOF0KayZX-llXl-22" value="" style="edgeStyle=elbowEdgeStyle;html=1;labelBackgroundColor=none;rounded=1;elbow=horizontal;endArrow=none;endFill=0;align=left;entryX=0.5;entryY=1;entryDx=0;entryDy=0;exitX=0.5;exitY=0;exitDx=0;exitDy=0;" edge="1" parent="1" source="jF7e8WXOF0KayZX-llXl-10" target="jF7e8WXOF0KayZX-llXl-11">
          <mxGeometry width="80" height="80" relative="1" as="geometry">
            <mxPoint x="280" y="600" as="sourcePoint" />
            <mxPoint x="360" y="520" as="targetPoint" />
          </mxGeometry>
        </mxCell>
        <mxCell id="jF7e8WXOF0KayZX-llXl-24" value="User" style="shape=actor;horizontalLabelPosition=right;align=left;labelPosition=right;strokeWidth=2;border=0;aspect=fixed;verticalAlign=middle;verticalLabelPosition=middle;" vertex="1" parent="1">
          <mxGeometry x="375" y="155" width="35" height="50" as="geometry" />
        </mxCell>
        <mxCell id="jF7e8WXOF0KayZX-llXl-27" value="Raspberry Pi&#xa;Producer" style="shape=agent;offsetSize=8;strokeWidth=2;" vertex="1" parent="1">
          <mxGeometry x="730" y="150" width="100" height="60" as="geometry" />
        </mxCell>
        <mxCell id="jF7e8WXOF0KayZX-llXl-28" value="user-rt-consumers" style="shape=agent;offsetSize=8;strokeWidth=2;dashed=1;fillColor=#eeeeee;strokeColor=#36393d;align=left;verticalAlign=bottom;spacingLeft=5;spacingBottom=3;" vertex="1" parent="1">
          <mxGeometry x="430" y="620" width="190" height="110" as="geometry" />
        </mxCell>
        <mxCell id="jF7e8WXOF0KayZX-llXl-30" value="Consumer" style="shape=agent;offsetSize=8;strokeWidth=2;multiple=true;" vertex="1" parent="1">
          <mxGeometry x="450" y="640" width="80" height="50" as="geometry" />
        </mxCell>
        <mxCell id="jF7e8WXOF0KayZX-llXl-31" value="" style="shape=dot3;connectable=0;aspect=fixed;" vertex="1" parent="1">
          <mxGeometry x="550" y="657.5" width="55" height="15" as="geometry" />
        </mxCell>
        <mxCell id="jF7e8WXOF0KayZX-llXl-32" value="Server Ingress" style="shape=agent;offsetSize=8;strokeWidth=2;" vertex="1" parent="1">
          <mxGeometry x="780" y="330" width="140" height="35" as="geometry" />
        </mxCell>
        <mxCell id="jF7e8WXOF0KayZX-llXl-33" value="" style="edgeStyle=elbowEdgeStyle;html=1;labelBackgroundColor=none;rounded=1;elbow=vertical;endArrow=none;endFill=0;align=center;entryX=0.5;entryY=1;entryDx=0;entryDy=0;exitX=0.5;exitY=0;exitDx=0;exitDy=0;" edge="1" parent="1" source="jF7e8WXOF0KayZX-llXl-4" target="jF7e8WXOF0KayZX-llXl-32">
          <mxGeometry width="80" height="80" relative="1" as="geometry">
            <mxPoint x="830" y="420" as="sourcePoint" />
            <mxPoint x="830" y="380" as="targetPoint" />
          </mxGeometry>
        </mxCell>
        <mxCell id="jF7e8WXOF0KayZX-llXl-34" value="ml-analysis" style="shape=agent;offsetSize=8;strokeWidth=2;fillColor=#eeeeee;strokeColor=#36393d;dashed=1;align=left;verticalAlign=bottom;spacingLeft=5;spacingBottom=3;" vertex="1" parent="1">
          <mxGeometry x="670" y="620" width="200" height="110" as="geometry" />
        </mxCell>
        <mxCell id="jF7e8WXOF0KayZX-llXl-36" value="Non-real-time&#xa;Consumer" style="shape=agent;offsetSize=8;strokeWidth=2;" vertex="1" parent="1">
          <mxGeometry x="570" y="150" width="100" height="60" as="geometry" />
        </mxCell>
        <mxCell id="jF7e8WXOF0KayZX-llXl-37" value="IP Camera&#xa;Producer" style="shape=agent;offsetSize=8;strokeWidth=2;" vertex="1" parent="1">
          <mxGeometry x="870" y="150" width="100" height="60" as="geometry" />
        </mxCell>
        <mxCell id="jF7e8WXOF0KayZX-llXl-38" value="RTSP" style="edgeStyle=elbowEdgeStyle;html=1;labelBackgroundColor=none;rounded=1;elbow=vertical;endArrow=classic;endFill=1;align=center;exitX=0.5;exitY=1;exitDx=0;exitDy=0;entryX=0.25;entryY=0;entryDx=0;entryDy=0;" edge="1" parent="1" source="jF7e8WXOF0KayZX-llXl-27" target="jF7e8WXOF0KayZX-llXl-32">
          <mxGeometry x="0.0313" y="10" width="80" height="80" relative="1" as="geometry">
            <mxPoint x="680" y="320" as="sourcePoint" />
            <mxPoint x="760" y="240" as="targetPoint" />
            <mxPoint as="offset" />
          </mxGeometry>
        </mxCell>
        <mxCell id="jF7e8WXOF0KayZX-llXl-39" value="RTSP" style="edgeStyle=elbowEdgeStyle;html=1;labelBackgroundColor=none;rounded=1;elbow=vertical;endArrow=classic;endFill=1;align=center;exitX=0.5;exitY=1;exitDx=0;exitDy=0;entryX=0.75;entryY=0;entryDx=0;entryDy=0;" edge="1" parent="1" source="jF7e8WXOF0KayZX-llXl-37" target="jF7e8WXOF0KayZX-llXl-32">
          <mxGeometry x="0.0311" y="-10" width="80" height="80" relative="1" as="geometry">
            <mxPoint x="930" y="320" as="sourcePoint" />
            <mxPoint x="1010" y="240" as="targetPoint" />
            <mxPoint as="offset" />
          </mxGeometry>
        </mxCell>
        <mxCell id="jF7e8WXOF0KayZX-llXl-40" value="RTSP&lt;font style=&quot;font-size: 13px;&quot;&gt;*&lt;/font&gt;" style="edgeStyle=elbowEdgeStyle;html=1;labelBackgroundColor=none;rounded=1;elbow=vertical;endArrow=classic;endFill=1;align=center;exitX=0.5;exitY=0;exitDx=0;exitDy=0;entryX=0.5;entryY=1;entryDx=0;entryDy=0;" edge="1" parent="1" source="jF7e8WXOF0KayZX-llXl-12" target="jF7e8WXOF0KayZX-llXl-36">
          <mxGeometry x="0.0011" y="-10" width="80" height="80" relative="1" as="geometry">
            <mxPoint x="520" y="340" as="sourcePoint" />
            <mxPoint x="600" y="260" as="targetPoint" />
            <mxPoint as="offset" />
          </mxGeometry>
        </mxCell>
        <mxCell id="jF7e8WXOF0KayZX-llXl-42" value="ML pipeline" style="shape=agent;offsetSize=8;strokeWidth=2;multiple=true;" vertex="1" parent="1">
          <mxGeometry x="690" y="638" width="90" height="47" as="geometry" />
        </mxCell>
        <mxCell id="jF7e8WXOF0KayZX-llXl-43" value="" style="shape=dot3;connectable=0;aspect=fixed;" vertex="1" parent="1">
          <mxGeometry x="800" y="655" width="55" height="15" as="geometry" />
        </mxCell>
        <mxCell id="jF7e8WXOF0KayZX-llXl-44" value="RTSP" style="edgeStyle=elbowEdgeStyle;html=1;labelBackgroundColor=none;rounded=1;elbow=vertical;endArrow=classic;endFill=1;align=center;exitX=0.25;exitY=1;exitDx=0;exitDy=0;entryX=0.5;entryY=0;entryDx=0;entryDy=0;" edge="1" parent="1" source="jF7e8WXOF0KayZX-llXl-4" target="jF7e8WXOF0KayZX-llXl-34">
          <mxGeometry x="0.4146" y="-20" width="80" height="80" relative="1" as="geometry">
            <mxPoint x="850" y="470" as="sourcePoint" />
            <mxPoint x="750" y="663" as="targetPoint" />
            <Array as="points">
              <mxPoint x="805" y="490" />
            </Array>
            <mxPoint as="offset" />
          </mxGeometry>
        </mxCell>
        <mxCell id="jF7e8WXOF0KayZX-llXl-46" value="HTTP" style="shape=useedge;vertical=true;edgeStyle=none;endArrow=none;useSignPosition=left;useSignDirection=south;rounded=0;entryX=0.5;entryY=1;entryDx=0;entryDy=0;exitX=0.5;exitY=0;exitDx=0;exitDy=0;dx=1;dy=65;" edge="1" parent="1" source="jF7e8WXOF0KayZX-llXl-11" target="jF7e8WXOF0KayZX-llXl-24">
          <mxGeometry x="0.28" y="-25" height="160" relative="1" as="geometry">
            <mxPoint x="300" y="410" as="sourcePoint" />
            <mxPoint x="300" y="250" as="targetPoint" />
            <mxPoint as="offset" />
          </mxGeometry>
        </mxCell>
        <mxCell id="jF7e8WXOF0KayZX-llXl-48" value="RTSP" style="edgeStyle=elbowEdgeStyle;html=1;labelBackgroundColor=none;rounded=1;elbow=vertical;endArrow=classic;endFill=1;align=center;exitX=0;exitY=0.5;exitDx=0;exitDy=0;entryX=0.5;entryY=0;entryDx=0;entryDy=0;" edge="1" parent="1" source="jF7e8WXOF0KayZX-llXl-6" target="jF7e8WXOF0KayZX-llXl-28">
          <mxGeometry x="-0.5372" y="15" width="80" height="80" relative="1" as="geometry">
            <mxPoint x="480" y="600" as="sourcePoint" />
            <mxPoint x="560" y="520" as="targetPoint" />
            <Array as="points">
              <mxPoint x="540" y="435" />
            </Array>
            <mxPoint as="offset" />
          </mxGeometry>
        </mxCell>
      </root>
    </mxGraphModel>
  </diagram>
</mxfile>
